<?xml version="1.0" encoding="UTF-8"?>
<svg xmlns="http://www.w3.org/2000/svg" xmlns:xlink="http://www.w3.org/1999/xlink" width="18pt" height="18pt" viewBox="0 0 18 18" version="1.1">
<g id="surface1">
<path style=" stroke:none;fill-rule:nonzero;fill:rgb(0%,0%,0%);fill-opacity:1;" d="M 4.585938 10.160156 L 6.480469 10.160156 L 6.480469 16.242188 L 4.585938 16.242188 Z M 5.539062 7.136719 C 6.140625 7.136719 6.632812 7.628906 6.632812 8.234375 C 6.632812 8.839844 6.140625 9.332031 5.539062 9.332031 C 4.929688 9.332031 4.441406 8.839844 4.441406 8.234375 C 4.441406 7.628906 4.929688 7.136719 5.539062 7.136719 "/>
<path style=" stroke:none;fill-rule:nonzero;fill:rgb(0%,0%,0%);fill-opacity:1;" d="M 7.667969 10.160156 L 9.476562 10.160156 L 9.476562 10.992188 L 9.503906 10.992188 C 9.757812 10.515625 10.371094 10.011719 11.292969 10.011719 C 13.203125 10.011719 13.558594 11.269531 13.558594 12.910156 L 13.558594 16.242188 L 11.671875 16.242188 L 11.671875 13.285156 C 11.671875 12.578125 11.660156 11.671875 10.691406 11.671875 C 9.707031 11.671875 9.558594 12.441406 9.558594 13.234375 L 9.558594 16.242188 L 7.671875 16.242188 Z M 7.667969 10.160156 "/>
</g>
</svg>
